<?xml version="1.0" encoding="UTF-8"?>
<!DOCTYPE svg PUBLIC "-//W3C//DTD SVG 1.1//EN" "http://www.w3.org/Graphics/SVG/1.1/DTD/svg11.dtd">
<!-- Creator: CorelDRAW X7 -->
<svg xmlns="http://www.w3.org/2000/svg" xml:space="preserve" width="210mm" height="226.5mm" version="1.1" style="shape-rendering:geometricPrecision; text-rendering:geometricPrecision; image-rendering:optimizeQuality; fill-rule:evenodd; clip-rule:evenodd"
viewBox="0 0 21000 22650"
 xmlns:xlink="http://www.w3.org/1999/xlink">
 <defs>
  <style type="text/css">
   <![CDATA[
    .str0 {stroke:#ED3237;stroke-width:7.62}
    .fil0 {fill:red}
    .fil1 {fill:white}
   ]]>
  </style>
   <clipPath id="id0">
    <rect x="-18794" y="-2165" width="14924" height="14924"/>
   </clipPath>
 </defs>
 <g id="Layer_x0020_1">
  <metadata id="CorelCorpID_0Corel-Layer"/>
  <g style="clip-path:url(#id0)">
   <image id="pistão.png" x="-18794" y="-2165" width="14924" height="14924" xlink:href="logopiston_Images\logopiston_ImgID1.png"/>
  </g>
  <circle class="fil0 str0" transform="matrix(1.08781 -0.12056 0.12056 1.08781 47934.6 1557.47)" r="10936"/>
  <g id="_344827344">
   <path class="fil1" d="M10999 14085c100,-150 391,-536 434,-694 203,54 763,915 880,1072 1680,2251 2940,1493 2940,3095 0,1053 -1358,1686 -2204,901 -734,-680 -80,-1404 -1529,-3593 -173,-261 -370,-496 -521,-781zm-3690 4731c-714,0 -1345,-547 -1345,-1258 0,-1602 1187,-761 3069,-3268 309,-412 589,-770 899,-1185 924,-1235 2861,-3647 3541,-4663 165,39 265,133 391,217 -53,226 -3475,5190 -3759,5617 -660,989 -1099,1488 -1407,2760 -142,583 -85,1073 -600,1484 -204,163 -540,296 -789,296zm44 -10157c125,-84 226,-178 390,-217l1229 1636c226,277 402,526 619,814l626 806c-90,135 -353,481 -477,564 -403,-601 -801,-1180 -1207,-1788l-1120 -1658c-47,-87 -38,-106 -60,-157zm955 -521c942,0 894,470 1177,607 273,132 734,-346 1123,-607 181,121 317,236 504,365 210,145 376,332 588,255 136,-49 143,-116 223,-216 251,-313 538,-404 986,-404l-1700 2251c-137,184 -443,639 -601,744 -128,-85 -1006,-1269 -1166,-1482 -192,-257 -371,-481 -564,-738l-570 -775zm7162 2692c-188,-51 -377,-298 -565,-348 29,-341 663,-1403 -625,-2283 -220,-150 -385,-285 -607,-434 -608,-410 -1283,-353 -1868,51 -120,82 -138,122 -242,192 -174,-46 -294,-204 -564,-347 51,-221 473,-718 625,-938l1650 -2299c89,-123 296,-374 329,-496 165,44 425,265 582,373l3610 2597c118,86 176,159 322,199 -37,140 -534,785 -633,929 -615,892 -1404,1892 -2014,2804zm-12371 -3733c137,-37 194,-103 297,-180 98,-74 176,-122 279,-199l1669 -1196c377,-281 734,-517 1110,-800 197,-148 990,-749 1159,-794 48,180 2034,2841 2292,3221 110,162 267,317 312,512 -272,144 -391,301 -564,347 -385,-258 -566,-521 -1302,-521 -596,0 -1032,451 -1415,712 -1284,875 -654,1933 -625,2283 -188,50 -377,297 -564,348l-2648 -3733zm15496 -651l-89 172c-193,-102 -385,-264 -563,-389l-3820 -2742c-79,-74 -137,7 -65,-148 75,-159 458,201 555,273 194,145 369,255 559,396l2828 2034c127,96 468,370 595,404zm-15887 173l-89 -172c122,-33 1002,-692 1131,-783 185,-131 360,-259 552,-403l1717 -1234c194,-145 368,-255 559,-396 96,-71 504,-454 580,-292 50,107 77,59 -195,242l-4255 3038zm11807 -3950c150,-72 197,5 304,85l3663 2632c203,140 384,299 590,408l-89 173 -3941 -2826c-365,-276 -395,-219 -527,-472zm-12284 3299l-89 -172 4229 -3024c128,-92 173,-179 331,-103 -43,160 -98,169 -225,253 -116,75 -164,114 -278,200 -195,147 -355,258 -557,398l-2829 2032c-211,152 -373,276 -582,416zm12805 -4037c376,199 4486,3218 4514,3256 -204,136 -155,66 -591,-235l-1741 -1254c-391,-295 -764,-541 -1166,-830l-882 -638c-155,-110 -187,-93 -134,-299zm-13370 3256c86,-117 2047,-1490 2233,-1631l2282 -1625c57,247 69,146 -416,496l-3786 2728c-164,116 -153,139 -313,32zm-737 -174c0,323 272,549 555,964 894,1312 2026,2761 2943,4089 1437,2083 1067,1697 2344,833 186,-125 380,-230 273,-497 -161,-406 -256,-179 -256,-918 0,-150 32,-168 44,-304l87 0c34,130 488,754 599,920 105,159 186,280 295,443l1536 2283c-465,695 -1387,1877 -1996,2345 -649,498 -1060,530 -1472,958l-353 472c-732,1432 511,2823 1564,2823 492,0 643,24 1092,-210 935,-487 948,-1232 1097,-1899 139,-623 380,-1241 701,-1729 123,-186 527,-821 626,-893 130,95 673,978 784,1169 595,1028 508,1636 700,2251 202,643 923,1311 1685,1311 706,0 1040,-68 1573,-597 870,-862 701,-2351 -425,-3025 -429,-256 -566,-255 -1037,-613 -631,-479 -1547,-1654 -2021,-2363 230,-435 2373,-3429 2431,-3646l86 0c64,764 131,501 -199,1194 -134,282 71,383 261,524 1288,954 1047,921 1743,0 213,-282 399,-541 600,-832 916,-1328 2047,-2775 2943,-4089 97,-142 187,-268 288,-406 492,-669 406,-576 -991,-1556l-1333 -968c-226,-170 -433,-306 -657,-471 -223,-165 -436,-315 -658,-471 -188,-133 -1171,-912 -1389,-912 -265,0 -382,309 -626,633l-2672 3708c-175,248 -348,490 -522,738l-564 738c-91,-67 -196,-232 -269,-339 -96,-141 -175,-233 -277,-374l-3594 -5000c-217,-228 -454,-46 -623,82 -969,740 -2611,1883 -3633,2617 -219,158 -1283,858 -1283,1017z"/>
   <path class="fil1" d="M5749 6009c0,-790 912,-726 912,-43 0,560 -912,478 -912,43zm-651 -130c0,1497 2214,1446 2214,43 0,-637 -540,-1128 -1085,-1128 -585,0 -1129,501 -1129,1085z"/>
   <path class="fil1" d="M15082 6356c-769,0 -631,-911 -44,-911 585,0 559,911 44,911zm-1172 -477c0,1487 2213,1479 2213,0 0,-579 -569,-1085 -1085,-1085 -594,0 -1128,494 -1128,1085z"/>
   <path class="fil1" d="M13996 16904c-384,0 -324,-477 -43,-477 99,0 50,14 174,43 25,111 74,434 -131,434zm-911 -347c0,1341 1736,1195 1736,87 0,-710 -891,-1138 -1423,-642 -121,112 -313,343 -313,555z"/>
   <path class="fil1" d="M7051 16687c0,-117 21,-120 44,-217 587,-140 436,434 173,434 -101,0 -217,-116 -217,-217zm-651 -43c0,474 409,868 738,868 300,0 505,16 773,-269 501,-533 124,-1446 -643,-1447 -437,0 -868,376 -868,848z"/>
  </g>
 </g>
</svg>
