<?xml version="1.0" encoding="UTF-8"?>
<!DOCTYPE svg PUBLIC "-//W3C//DTD SVG 1.1//EN" "http://www.w3.org/Graphics/SVG/1.1/DTD/svg11.dtd">
<!-- Creator: CorelDRAW X7 -->
<svg xmlns="http://www.w3.org/2000/svg" xml:space="preserve" width="210mm" height="297mm" version="1.1" style="shape-rendering:geometricPrecision; text-rendering:geometricPrecision; image-rendering:optimizeQuality; fill-rule:evenodd; clip-rule:evenodd"
viewBox="0 0 21000 29700"
 xmlns:xlink="http://www.w3.org/1999/xlink">
 <defs>
  <style type="text/css">
   <![CDATA[
    .fil0 {fill:#ED3237}
    .fil1 {fill:white}
   ]]>
  </style>
   <clipPath id="id0">
    <rect x="-18794" y="1360" width="14924" height="14924"/>
   </clipPath>
 </defs>
 <g id="Layer_x0020_1">
  <metadata id="CorelCorpID_0Corel-Layer"/>
  <g style="clip-path:url(#id0)">
   <image id="pistão.png" x="-18794" y="1360" width="14924" height="14924" xlink:href="logo site_Images\logo site_ImgID1.png"/>
  </g>
  <g id="_352528600">
   <circle class="fil0" cx="10477" cy="12575" r="9948"/>
   <g>
    <path class="fil1" d="M10714 14883c62,-92 239,-327 265,-424 124,33 467,559 538,655 1026,1375 1796,912 1796,1890 0,644 -830,1030 -1347,551 -448,-415 -48,-858 -934,-2195 -105,-159 -226,-303 -318,-477zm-2254 2890c-436,0 -822,-334 -822,-769 0,-978 726,-464 1875,-1996 189,-251 360,-470 550,-723 564,-755 1747,-2228 2163,-2849 100,24 162,82 238,133 -32,138 -2122,3170 -2296,3431 -403,604 -671,909 -859,1686 -87,356 -52,655 -367,906 -124,100 -330,181 -482,181zm27 -6204c77,-51 138,-109 239,-133l750 1000c138,168 245,321 378,497l383 492c-56,83 -216,294 -292,345 -246,-368 -489,-721 -737,-1093l-684 -1012c-29,-54 -23,-65 -37,-96zm583 -318c576,0 547,287 720,370 166,81 448,-211 686,-370 110,74 193,144 307,222 128,89 230,203 360,156 82,-30 87,-71 136,-132 153,-191 329,-246 602,-246l-1038 1375c-84,112 -271,390 -367,454 -79,-52 -615,-775 -713,-905 -117,-157 -227,-294 -344,-451l-349 -473zm4375 1644c-114,-31 -230,-182 -344,-213 17,-208 404,-857 -382,-1394 -135,-92 -236,-175 -371,-266 -372,-250 -784,-215 -1142,32 -73,50 -83,74 -147,117 -106,-28 -179,-125 -345,-212 32,-135 290,-438 382,-573l1008 -1404c54,-75 181,-229 201,-303 101,27 260,162 355,228l2206 1586c72,53 107,97 197,121 -23,86 -327,480 -387,568 -376,545 -858,1156 -1231,1713zm-7557 -2281c84,-22 119,-63 182,-110 60,-45 108,-74 171,-121l1019 -731c230,-171 449,-316 678,-488 120,-91 605,-458 708,-485 29,110 1242,1735 1400,1967 67,99 163,194 191,313 -166,88 -239,184 -345,212 -235,-157 -346,-318 -795,-318 -364,0 -631,275 -865,435 -784,534 -399,1180 -381,1394 -115,31 -231,182 -345,213l-1618 -2281zm9466 -397l-54 105c-118,-62 -235,-161 -344,-238l-2333 -1674c-48,-46 -84,4 -40,-91 46,-97 280,123 339,167 118,88 225,156 342,242l1727 1242c77,59 286,226 363,247zm-9704 106l-55 -106c75,-20 613,-423 691,-478 113,-80 220,-158 337,-246l1049 -754c119,-88 225,-156 342,-242 59,-43 308,-277 354,-178 30,66 47,36 -119,148l-2599 1856zm7212 -2413c92,-44 121,3 186,51l2237 1609c124,85 235,182 361,249l-55 105 -2407 -1726c-223,-169 -241,-134 -322,-288zm-7504 2015l-54 -105 2583 -1847c78,-56 106,-110 202,-63 -26,97 -59,103 -137,154 -71,46 -100,70 -170,122 -119,90 -216,158 -340,243l-1728 1242c-129,93 -228,168 -356,254zm7822 -2466c230,122 2741,1966 2758,1989 -125,83 -95,40 -361,-144l-1063 -766c-240,-180 -467,-330 -713,-507l-539 -389c-94,-68 -114,-57 -82,-183zm-8167 1989c53,-71 1251,-911 1364,-997l1394 -992c35,151 42,89 -254,303l-2312 1666c-101,71 -94,85 -192,20zm-450 -106c0,197 166,335 339,588 546,802 1238,1687 1798,2498 878,1272 651,1037 1432,509 113,-77 232,-140 167,-304 -99,-248 -157,-109 -157,-560 0,-92 20,-103 27,-186l53 0c21,79 298,461 366,562 64,97 114,171 180,271l939 1394c-285,425 -848,1147 -1220,1432 -396,305 -647,324 -899,586l-216 288c-447,875 312,1724 956,1724 300,0 393,15 667,-128 571,-297 579,-752 670,-1160 85,-380 232,-758 428,-1056 75,-113 322,-501 383,-546 79,58 411,598 478,715 364,628 311,999 428,1375 123,392 564,800 1029,800 431,0 635,-41 961,-364 532,-527 429,-1437 -260,-1848 -262,-157 -345,-156 -633,-374 -386,-293 -945,-1011 -1235,-1444 141,-266 1450,-2095 1485,-2227l53 0c39,467 80,306 -121,729 -82,173 43,234 159,320 787,583 639,563 1065,0 130,-172 244,-330 366,-508 560,-811 1250,-1695 1798,-2498 59,-87 114,-164 176,-248 301,-408 248,-351 -605,-950l-815 -591c-138,-104 -264,-187 -401,-288 -137,-101 -266,-193 -402,-288 -115,-81 -715,-557 -848,-557 -162,0 -234,189 -383,387l-1632 2265c-107,151 -213,299 -319,450l-344 451c-56,-41 -120,-141 -165,-207 -58,-86 -107,-142 -169,-228l-2196 -3055c-132,-139 -277,-28 -380,51 -592,452 -1595,1150 -2219,1599 -134,96 -784,523 -784,621z"/>
    <path class="fil1" d="M7506 10455c0,-482 557,-443 557,-26 0,342 -557,292 -557,26zm-398 -79c0,914 1352,883 1352,26 0,-389 -329,-689 -662,-689 -358,0 -690,306 -690,663z"/>
    <path class="fil1" d="M13207 10667c-470,0 -386,-557 -27,-557 357,0 342,557 27,557zm-716 -291c0,908 1352,903 1352,0 0,-354 -348,-663 -663,-663 -363,0 -689,302 -689,663z"/>
    <path class="fil1" d="M12544 17110c-235,0 -199,-291 -27,-291 61,0 31,9 106,26 16,68 46,265 -79,265zm-557 -212c0,819 1060,730 1060,53 0,-433 -544,-694 -869,-392 -74,69 -191,210 -191,339z"/>
    <path class="fil1" d="M8301 16978c0,-72 13,-73 27,-133 358,-86 266,265 106,265 -62,0 -133,-70 -133,-132zm-397 -27c0,290 249,531 450,531 183,0 309,10 472,-165 306,-325 76,-883 -392,-883 -267,-1 -530,229 -530,517z"/>
   </g>
  </g>
 </g>
</svg>
