<?xml version="1.0" encoding="UTF-8"?>
<!DOCTYPE svg PUBLIC "-//W3C//DTD SVG 1.1//EN" "http://www.w3.org/Graphics/SVG/1.1/DTD/svg11.dtd">
<!-- Creator: CorelDRAW X7 -->
<svg xmlns="http://www.w3.org/2000/svg" xml:space="preserve" width="210mm" height="297mm" version="1.1" style="shape-rendering:geometricPrecision; text-rendering:geometricPrecision; image-rendering:optimizeQuality; fill-rule:evenodd; clip-rule:evenodd"
viewBox="0 0 21000 29700"
 xmlns:xlink="http://www.w3.org/1999/xlink">
 <defs>
  <style type="text/css">
   <![CDATA[
    .str0 {stroke:#ED3237;stroke-width:7.62}
    .fil0 {fill:red}
    .fil1 {fill:white}
   ]]>
  </style>
   <clipPath id="id0">
    <rect x="-18794" y="1360" width="14924" height="14924"/>
   </clipPath>
 </defs>
 <g id="Layer_x0020_1">
  <metadata id="CorelCorpID_0Corel-Layer"/>
  <g style="clip-path:url(#id0)">
   <image id="pistão.png" x="-18794" y="1360" width="14924" height="14924" xlink:href="lupa cor certa_Images\lupa cor certa_ImgID1.png"/>
  </g>
  <g id="_343337000">
   <circle class="fil0 str0" cx="10701" cy="12974" r="9948"/>
   <path class="fil1" d="M10937 15787c61,-92 239,-327 265,-424 124,33 466,559 538,655 1026,1375 1795,912 1795,1890 0,644 -829,1030 -1346,551 -448,-415 -48,-858 -934,-2195 -106,-159 -226,-303 -318,-477zm-2254 2890c-436,0 -822,-334 -822,-769 0,-978 726,-464 1875,-1996 189,-251 360,-470 549,-723 564,-755 1748,-2228 2163,-2849 101,24 162,82 239,133 -32,138 -2122,3170 -2296,3431 -403,604 -672,909 -860,1686 -86,356 -52,655 -366,906 -125,100 -330,181 -482,181zm27 -6204c76,-51 138,-109 238,-133l751 1000c138,168 245,321 378,497l382 492c-55,83 -215,294 -291,345 -246,-368 -490,-721 -737,-1093l-685 -1012c-28,-54 -23,-65 -36,-96zm583 -318c575,0 546,287 719,370 167,81 449,-211 686,-370 111,74 193,144 308,222 128,89 230,203 359,156 83,-30 87,-71 137,-132 153,-191 328,-246 601,-246l-1038 1375c-83,112 -271,390 -367,454 -78,-52 -615,-775 -712,-905 -118,-157 -227,-294 -345,-451l-348 -473zm4375 1644c-115,-31 -230,-182 -345,-213 17,-208 405,-857 -382,-1394 -134,-92 -235,-175 -371,-266 -371,-250 -783,-215 -1141,32 -73,50 -84,74 -148,117 -106,-28 -179,-125 -344,-212 31,-135 289,-438 382,-573l1008 -1404c54,-75 181,-229 201,-303 100,27 259,162 355,228l2205 1586c73,53 108,97 197,121 -23,86 -327,480 -387,568 -375,545 -857,1156 -1230,1713zm-7557 -2281c84,-22 119,-63 182,-110 60,-45 107,-74 170,-121l1020 -731c230,-171 448,-316 677,-488 121,-91 605,-458 709,-485 29,110 1242,1735 1400,1967 67,99 163,194 190,313 -166,88 -239,184 -344,212 -235,-157 -346,-318 -796,-318 -364,0 -630,275 -864,435 -784,534 -400,1180 -382,1394 -114,31 -230,182 -345,213l-1617 -2281zm9466 -397l-55 105c-117,-62 -235,-161 -343,-238l-2334 -1674c-48,-46 -83,4 -39,-91 45,-97 279,123 339,167 118,88 225,156 341,242l1727 1242c78,59 287,226 364,247zm-9705 106l-54 -106c75,-20 612,-423 691,-478 113,-80 220,-158 337,-246l1049 -754c118,-88 224,-156 341,-242 59,-43 308,-277 354,-178 31,66 47,36 -119,148l-2599 1856zm7212 -2413c92,-44 121,3 187,51l2237 1609c124,85 234,182 361,249l-55 105 -2408 -1726c-222,-169 -240,-134 -322,-288zm-7503 2015l-55 -105 2584 -1847c78,-56 105,-110 202,-63 -26,97 -60,103 -138,154 -70,46 -100,70 -169,122 -119,90 -217,158 -340,243l-1728 1242c-130,93 -228,168 -356,254zm7822 -2466c229,122 2740,1966 2757,1989 -124,83 -94,40 -360,-144l-1064 -766c-239,-180 -467,-330 -712,-507l-540 -389c-94,-68 -114,-57 -81,-183zm-8167 1989c52,-71 1250,-911 1364,-997l1394 -992c35,151 42,89 -254,303l-2313 1666c-100,71 -94,85 -191,20zm-451 -106c0,197 167,335 340,588 546,802 1237,1687 1797,2498 878,1272 652,1037 1432,509 114,-77 232,-140 167,-304 -99,-248 -156,-109 -156,-560 0,-92 19,-103 26,-186l53 0c22,79 299,461 366,562 65,97 114,171 180,271l939 1394c-284,425 -847,1147 -1219,1432 -397,305 -647,324 -899,586l-216 288c-447,875 312,1724 955,1724 301,0 393,15 668,-128 571,-297 578,-752 669,-1160 85,-380 232,-758 429,-1056 75,-113 322,-501 382,-546 79,58 411,598 479,715 363,628 310,999 428,1375 123,392 564,800 1029,800 431,0 635,-41 961,-364 531,-527 428,-1437 -260,-1848 -262,-157 -346,-156 -633,-374 -386,-293 -945,-1011 -1235,-1444 141,-266 1450,-2095 1485,-2227l53 0c39,467 80,306 -122,729 -82,173 44,234 160,320 786,583 639,563 1064,0 130,-172 244,-330 367,-508 559,-811 1250,-1695 1797,-2498 60,-87 115,-164 177,-248 300,-408 247,-351 -606,-950l-814 -591c-138,-104 -265,-187 -402,-288 -136,-101 -266,-193 -401,-288 -115,-81 -716,-557 -849,-557 -162,0 -233,189 -382,387l-1633 2265c-106,151 -212,299 -318,450l-345 451c-56,-41 -120,-141 -164,-207 -59,-86 -107,-142 -169,-228l-2196 -3055c-132,-139 -277,-28 -380,51 -592,452 -1595,1150 -2219,1599 -134,96 -785,523 -785,621z"/>
   <path class="fil1" d="M7730 10854c0,-482 557,-444 557,-27 0,343 -557,292 -557,27zm-398 -80c0,915 1353,883 1353,27 0,-390 -330,-689 -663,-689 -358,0 -690,305 -690,662z"/>
   <path class="fil1" d="M13431 11066c-470,0 -385,-557 -27,-557 357,0 342,557 27,557zm-716 -292c0,909 1352,904 1352,0 0,-354 -347,-662 -663,-662 -363,0 -689,302 -689,662z"/>
   <path class="fil1" d="M12768 17509c-235,0 -198,-291 -27,-291 61,0 31,9 106,26 16,68 46,265 -79,265zm-557 -212c0,819 1061,730 1061,53 0,-433 -545,-695 -870,-392 -74,69 -191,210 -191,339z"/>
   <path class="fil1" d="M8526 17377c0,-72 12,-73 26,-133 358,-86 267,265 106,265 -62,0 -132,-71 -132,-132zm-398 -27c0,290 249,530 451,530 183,0 308,10 472,-164 306,-325 75,-883 -393,-884 -267,0 -530,230 -530,518z"/>
  </g>
 </g>
</svg>
