<?xml version="1.0" encoding="UTF-8"?>
<!DOCTYPE svg PUBLIC "-//W3C//DTD SVG 1.1//EN" "http://www.w3.org/Graphics/SVG/1.1/DTD/svg11.dtd">
<!-- Creator: CorelDRAW X7 -->
<svg xmlns="http://www.w3.org/2000/svg" xml:space="preserve" width="210mm" height="297mm" version="1.1" style="shape-rendering:geometricPrecision; text-rendering:geometricPrecision; image-rendering:optimizeQuality; fill-rule:evenodd; clip-rule:evenodd"
viewBox="0 0 21000 29700"
 xmlns:xlink="http://www.w3.org/1999/xlink">
 <defs>
  <style type="text/css">
   <![CDATA[
    .fil0 {fill:#ED3237}
    .fil2 {fill:red}
    .fil1 {fill:white}
   ]]>
  </style>
   <clipPath id="id0">
    <path d="M-21663 -3726l16466 0 0 16688 -16466 0 0 -16688z"/>
   </clipPath>
 </defs>
 <g id="Layer_x0020_1">
  <metadata id="CorelCorpID_0Corel-Layer"/>
  <rect class="fil0" x="-24931" y="-6988" width="23001" height="23213"/>
  <g style="clip-path:url(#id0)">
   <image id="images.png" x="-21663" y="-3726" width="16466" height="16688" xlink:href="lupa_Images\lupa_ImgID1.png"/>
  </g>
  <g id="_197004224">
   <path class="fil1" d="M6838 5511c-5091,987 -3470,8120 1171,7339 1813,-305 3423,-2030 3077,-4259 -278,-1787 -2079,-3500 -4248,-3080z"/>
   <path class="fil2" d="M12013 15062c-149,-851 637,-1552 1481,-1204 405,167 2483,2351 2948,2816 330,330 1196,1046 1291,1594 139,806 -657,1493 -1469,1173 -406,-160 -2494,-2350 -2953,-2811 -321,-323 -1209,-1064 -1298,-1568zm-555 -2147c294,115 487,369 690,600l-371 370 -333 -261c-149,-151 -175,-160 -284,-334 92,-171 38,-85 166,-232 53,-61 85,-87 132,-143zm-4691 -8733c2947,-497 5282,1842 5637,4287 433,2976 -1762,5353 -4253,5701 -3066,428 -5401,-1778 -5739,-4291 -211,-1572 340,-3016 1097,-3895 780,-905 1627,-1527 3258,-1802zm-4958 4587l0 831c82,165 237,1167 381,1540 898,2326 3217,3815 5820,3551 521,-53 1076,-207 1525,-397 514,-219 803,-468 1208,-651 234,197 783,652 789,943 13,639 6,823 338,1267 389,518 1231,1259 1722,1751 596,596 1140,1138 1734,1735 607,611 1610,954 2402,197 744,-712 479,-1799 -125,-2399 -598,-594 -1137,-1140 -1736,-1735 -548,-543 -1167,-1255 -1738,-1732 -458,-383 -625,-328 -1320,-379 -435,-32 -456,-383 -955,-739 261,-638 731,-964 995,-2322 1170,-6004 -6945,-9290 -10250,-3907 -192,312 -376,727 -503,1120 -93,287 -209,1172 -287,1326z"/>
   <path class="fil1" d="M6852 5008c2488,-381 4425,1482 4737,3581 375,2520 -1493,4448 -3574,4770 -2480,385 -4484,-1485 -4780,-3548 -374,-2608 1455,-4471 3617,-4803zm-85 -826c-1631,275 -2478,897 -3258,1802 -757,879 -1308,2323 -1097,3895 338,2513 2673,4719 5739,4291 2491,-348 4686,-2725 4253,-5701 -355,-2445 -2690,-4784 -5637,-4287z"/>
   <path class="fil1" d="M12013 15062c89,504 977,1245 1298,1568 459,461 2547,2651 2953,2811 812,320 1608,-367 1469,-1173 -95,-548 -961,-1264 -1291,-1594 -465,-465 -2543,-2649 -2948,-2816 -844,-348 -1630,353 -1481,1204z"/>
   <path class="fil2" d="M6838 5511c2169,-420 3970,1293 4248,3080 346,2229 -1264,3954 -3077,4259 -4641,781 -6262,-6352 -1171,-7339zm14 -503c-2162,332 -3991,2195 -3617,4803 296,2063 2300,3933 4780,3548 2081,-322 3949,-2250 3574,-4770 -312,-2099 -2249,-3962 -4737,-3581z"/>
   <path class="fil1" d="M11160 13290c109,174 135,183 284,334l333 261 371 -370c-203,-231 -396,-485 -690,-600 -47,56 -79,82 -132,143 -128,147 -74,61 -166,232z"/>
  </g>
 </g>
</svg>
